HIERARCHY
ROOT Hips
{
    OFFSET 0.000000 0.000000 0.000000
    CHANNELS 6 Xposition Yposition Zposition Zrotation Xrotation Yrotation
    JOINT Spine
    {
        OFFSET -0.000000 8.359812 0.000000
        CHANNELS 3 Zrotation Xrotation Yrotation
        JOINT Spine1
        {
            OFFSET -0.000000 28.141317 0.000000
            CHANNELS 3 Zrotation Xrotation Yrotation
            JOINT Neck
            {
                OFFSET -0.000000 28.025745 2.547795
                CHANNELS 3 Zrotation Xrotation Yrotation
                JOINT Head
                {
                    OFFSET -0.000000 14.272848 -2.038978
                    CHANNELS 3 Zrotation Xrotation Yrotation
                    End Site
                    {
                        OFFSET -0.000000 25.487228 0.000000
                    }
                }
            }
            JOINT LeftShoulder
            {
                OFFSET 4.059574 26.120710 -0.180480
                CHANNELS 3 Zrotation Xrotation Yrotation
                JOINT LeftArm
                {
                    OFFSET 11.584161 0.000000 0.000000
                    CHANNELS 3 Zrotation Xrotation Yrotation
                    JOINT LeftForeArm
                    {
                        OFFSET 30.766815 0.000000 0.000000
                        CHANNELS 3 Zrotation Xrotation Yrotation
                        JOINT LeftHand
                        {
                            OFFSET 29.436810 0.000000 0.000000
                            CHANNELS 3 Zrotation Xrotation Yrotation
                            End Site
                            {
                                OFFSET 15.292337 0.000000 0.000000
                            }
                        }
                    }
                }
            }
            JOINT RightShoulder
            {
                OFFSET -4.095355 26.120710 -0.180480
                CHANNELS 3 Zrotation Xrotation Yrotation
                JOINT RightArm
                {
                    OFFSET -11.584161 0.000000 0.000000
                    CHANNELS 3 Zrotation Xrotation Yrotation
                    JOINT RightForeArm
                    {
                        OFFSET -30.766815 0.000000 0.000000
                        CHANNELS 3 Zrotation Xrotation Yrotation
                        JOINT RightHand
                        {
                            OFFSET -29.436810 0.000000 0.000000
                            CHANNELS 3 Zrotation Xrotation Yrotation
                            End Site
                            {
                                OFFSET -15.292337 0.000000 0.000000
                            }
                        }
                    }
                }
            }
        }
    }
    JOINT LeftUpLeg
    {
        OFFSET 10.194892 0.000000 0.000000
        CHANNELS 3 Zrotation Xrotation Yrotation
        JOINT LeftLeg
        {
            OFFSET -0.000000 -32.520012 0.000000
            CHANNELS 3 Zrotation Xrotation Yrotation
            JOINT LeftFoot
            {
                OFFSET -0.000000 -49.106510 0.000000
                CHANNELS 3 Zrotation Xrotation Yrotation
                JOINT LeftToeBase
                {
                    OFFSET -0.000000 -6.626679 15.292337
                    CHANNELS 3 Zrotation Xrotation Yrotation
                    End Site
                    {
                        OFFSET -0.000000 0.000000 4.077957
                    }
                }
            }
        }
    }
    JOINT RightUpLeg
    {
        OFFSET -10.194892 0.000000 0.000000
        CHANNELS 3 Zrotation Xrotation Yrotation
        JOINT RightLeg
        {
            OFFSET -0.000000 -32.520012 0.000000
            CHANNELS 3 Zrotation Xrotation Yrotation
            JOINT RightFoot
            {
                OFFSET -0.000000 -49.106510 0.000000
                CHANNELS 3 Zrotation Xrotation Yrotation
                JOINT RightToeBase
                {
                    OFFSET -0.000000 -6.626679 15.292337
                    CHANNELS 3 Zrotation Xrotation Yrotation
                    End Site
                    {
                        OFFSET -0.000000 0.000000 4.077957
                    }
                }
            }
        }
    }
}
MOTION
Frames:    14
Frame Time:    0.008333
300.237946    83.446709    42.068344    1.064607    -5.409010    97.580093    2.413535    -12.129079    -6.050670    10.973588    12.939610    -7.555430    5.504656    23.515535    20.738119    -21.777285    -11.525892    16.857727    6.462747    -0.757299    -4.669540    -64.830872    40.600323    -18.688540    10.773284    -5.923378    -40.339367    2.561442    -2.055780    -4.146252    -11.831470    3.324290    -2.835388    79.159149    46.804531    -6.126436    3.069537    -8.212281    8.438182    -4.890403    -8.005734    -10.160915    5.560196    6.620555    -6.063465    -9.576511    18.583145    -13.930285    6.525445    -16.504362    26.141758    0.000000    0.000000    0.000000    7.329520    -19.076727    1.626727    4.209683    16.249392    -0.964296    -3.766651    2.207698    -5.823146    0.000000    0.000000    0.000000    
300.758087    83.521149    42.059975    1.021453    -5.483976    97.845673    2.327159    -12.124235    -6.004649    11.429100    13.052095    -7.563663    5.805027    23.151316    20.538202    -21.607155    -11.276622    16.733301    6.731878    -0.722221    -4.819317    -65.540176    40.955132    -18.484356    10.860837    -5.740721    -39.881386    2.097396    -1.870388    -4.036321    -11.270371    3.327640    -3.290929    78.132256    46.540504    -5.430030    3.352543    -8.501204    8.174669    -5.071149    -8.265639    -10.754202    6.265110    5.379514    -6.328116    -11.461058    21.976048    -9.585399    5.227059    -16.301376    25.885878    0.000000    0.000000    0.000000    7.298112    -18.587568    0.917012    4.144531    15.991304    -0.583507    -3.972064    1.954810    -5.714883    0.000000    0.000000    0.000000    
301.244843    83.607307    42.065414    0.952406    -5.546500    98.112297    3.207542    -12.324858    -5.854584    9.734637    13.289272    -7.337792    7.545236    23.048189    20.271965    -21.933393    -11.019691    16.532772    8.429241    -0.728128    -4.843345    -66.650352    41.344231    -18.166517    10.541772    -5.642044    -39.420963    2.588439    -1.945389    -3.683410    -10.181055    3.041901    -2.725152    78.654167    45.585522    -5.935790    3.251673    -8.785214    7.986154    -5.124285    -8.514297    -11.159582    6.937454    3.920051    -5.853217    -3.368968    29.658842    -13.109393    4.246598    -17.925051    26.026649    0.000000    0.000000    0.000000    7.315577    -17.999592    0.225516    4.011366    15.464690    -0.552038    -4.095181    1.775203    -5.282193    0.000000    0.000000    0.000000    
301.737274    83.714523    42.082428    0.866553    -5.629675    98.418640    3.851718    -12.491284    -5.761084    8.560955    13.542527    -7.201195    8.908102    22.828434    20.062561    -22.014774    -10.828087    16.399839    9.618454    -0.672398    -4.496945    -67.183121    42.272621    -18.255188    10.304688    -5.793830    -38.790386    2.584579    -2.244284    -3.542507    -8.369944    3.022212    -2.801634    77.501022    45.409607    -5.499757    3.262520    -9.183511    7.875127    -5.149967    -8.894755    -11.455276    7.712511    2.271216    -5.308848    -2.572376    32.585049    -14.803147    5.967717    -15.622972    25.811792    0.000000    0.000000    0.000000    7.382989    -17.326622    -0.321540    3.883415    14.778900    -0.425294    -4.228935    1.651453    -5.085181    0.000000    0.000000    0.000000    
302.176727    83.818092    42.072918    0.726155    -5.625697    98.628471    4.268785    -12.640866    -5.670472    7.723666    13.746819    -7.076003    10.034535    22.579233    19.909245    -22.102482    -10.588552    16.310472    10.602466    -0.741413    -4.177363    -67.869110    43.036678    -18.128128    9.921446    -5.627316    -38.168247    2.860638    -2.269028    -3.015409    -7.792846    2.710115    -2.113058    77.917366    44.349487    -5.948707    3.307236    -9.407650    8.018569    -5.488167    -9.083018    -11.656854    8.355600    0.577772    -4.920701    -2.989644    35.098206    -16.110756    8.165635    -13.115187    25.490896    0.000000    0.000000    0.000000    7.360365    -16.766903    -0.713017    3.799229    14.137018    -0.534740    -4.406522    1.555617    -4.717655    0.000000    0.000000    0.000000    
302.624329    83.930328    42.082249    0.647085    -5.652481    98.866554    4.671791    -12.746536    -5.618930    7.065404    13.952429    -7.006724    10.630400    22.223438    19.803564    -21.672503    -10.440335    16.325130    11.343723    -0.804158    -3.877027    -68.423447    43.821060    -17.808601    9.502789    -5.722589    -37.819710    2.749502    -2.529022    -2.553533    -6.507062    2.684322    -2.462449    76.552948    44.537617    -5.028104    3.662588    -9.706592    7.901734    -5.910765    -9.353331    -11.795540    9.057287    -1.108069    -4.400750    -3.452501    37.630337    -17.420383    10.524928    -10.823029    25.105343    0.000000    0.000000    0.000000    7.421029    -16.084785    -1.007343    3.690320    13.382427    -0.707598    -4.495968    1.511337    -4.406702    0.000000    0.000000    0.000000    
303.065247    84.056259    42.065025    0.418548    -5.665352    99.065147    4.923451    -13.100530    -5.543066    6.714737    14.397493    -6.957884    11.129961    21.700195    19.692862    -21.402002    -10.257648    16.275202    11.913022    -1.005666    -3.518715    -68.951218    44.614910    -17.499865    8.938341    -5.753256    -37.391411    2.608682    -2.777639    -2.074568    -6.700491    2.251707    -1.594595    77.874359    44.340668    -5.441833    3.206212    -10.274539    7.547804    -6.091352    -9.869953    -11.656086    9.705281    -3.028694    -3.962281    -5.072862    39.872746    -18.001537    13.163698    -8.677820    24.648891    0.000000    0.000000    0.000000    7.403349    -15.558268    -1.145706    3.678462    12.655260    -0.810828    -4.369204    1.415895    -4.419861    0.000000    0.000000    0.000000    
303.499664    84.171944    42.094116    0.319077    -5.653360    99.282181    5.059674    -13.194863    -5.543832    6.532979    14.558820    -6.964881    11.163233    21.341785    19.627338    -20.647211    -10.230819    16.344967    12.209473    -1.022895    -3.170886    -69.335251    45.236282    -17.073452    8.335222    -5.802566    -37.117062    2.321988    -3.038696    -1.553794    -6.503051    2.075109    -1.202809    77.996338    44.308678    -5.178799    3.217714    -10.645593    7.453907    -6.559298    -10.194259    -11.625025    10.352420    -4.760172    -3.273589    -5.504524    42.280739    -19.189558    15.669900    -6.963480    24.204084    0.000000    0.000000    0.000000    7.422411    -14.874304    -0.968536    3.711143    11.856298    -1.032694    -4.448867    1.409546    -4.541691    0.000000    0.000000    0.000000    
303.902740    84.308708    42.114647    0.238667    -5.649240    99.412819    2.137971    -12.262234    -5.434245    12.869735    13.165239    -7.155372    8.041861    21.056746    19.043125    -19.751213    -10.057842    15.783560    8.719103    -1.069815    -4.125475    -69.387344    45.791149    -16.508530    7.651588    -5.784995    -36.655666    2.097976    -3.274521    -1.110658    -10.662465    2.463788    -2.553054    78.873634    45.199604    -4.606579    3.440303    -10.931085    7.523077    -7.017603    -10.445706    -11.702843    10.966498    -6.406440    -2.673727    -5.504524    42.280739    -19.189558    15.669900    -6.963480    24.204084    0.000000    0.000000    0.000000    7.455132    -14.229977    -0.762448    3.741441    11.132291    -1.159859    -4.435150    1.508658    -4.728094    0.000000    0.000000    0.000000    
304.334473    84.420319    42.095531    0.135530    -5.602786    99.536819    1.780989    -11.704009    -5.425729    13.186092    12.262781    -7.031093    9.453375    21.521034    18.773958    -20.629431    -9.988556    15.422329    8.709260    -1.190577    -2.876710    -70.459129    46.945190    -16.166836    7.240735    -5.361526    -35.257599    1.421986    -3.076355    -1.032473    -9.746209    2.932996    -1.014782    78.756897    47.370895    -5.568952    3.058082    -12.661604    8.768474    -7.277939    -12.128500    -12.221593    11.445459    -7.938860    -2.072152    -5.504524    42.280739    -19.189558    15.669900    -6.963480    24.204084    0.000000    0.000000    0.000000    6.645353    -13.175393    0.647831    5.223281    9.795101    -0.603177    -4.870204    1.638580    -6.965236    0.000000    0.000000    0.000000    
304.765045    84.518456    42.073208    0.048753    -5.555931    99.666077    1.859020    -12.117979    -4.926832    13.544174    12.848890    -6.656392    8.675169    20.645973    18.336288    -19.399450    -10.038385    15.115601    8.714211    -1.164796    -4.139000    -70.522934    46.683460    -15.588675    6.568093    -5.313372    -35.649342    0.597046    -3.208421    -0.693585    -10.557560    2.479358    -2.683690    78.857864    46.372501    -4.214725    3.347421    -11.633798    7.937069    -7.857388    -11.054296    -11.943380    11.896144    -9.260935    -2.323498    -5.504524    42.280739    -19.189558    15.669900    -6.963480    24.204084    0.000000    0.000000    0.000000    6.568987    -12.479659    0.708861    5.251602    9.042024    -0.376448    -4.868834    1.602154    -7.306176    0.000000    0.000000    0.000000    
305.190186    84.668167    42.124538    -0.105095    -5.668859    99.747231    1.491778    -12.688761    -4.285645    14.274623    13.660598    -6.170213    9.827260    19.789753    17.670885    -19.832857    -9.701163    14.339719    9.162634    -1.672348    -4.768000    -71.283440    46.960976    -15.652453    5.868943    -5.015535    -34.826431    0.381850    -3.178899    -0.322816    -11.085431    2.272225    -2.685703    80.145332    48.593349    -5.088202    2.829496    -13.943933    9.075437    -7.805035    -13.374372    -11.840861    12.636652    -10.954443    -0.683387    -5.504524    42.280739    -19.189558    15.669900    -6.963480    24.204084    0.000000    0.000000    0.000000    6.790492    -11.841403    0.935101    5.155195    8.191422    -0.499087    -4.777744    1.859646    -7.418225    0.000000    0.000000    0.000000    
305.638733    84.764122    42.152275    -0.132254    -5.696411    99.834435    1.670530    -12.558585    -4.156690    14.146437    13.421285    -6.013516    9.977945    19.787560    17.539455    -19.612408    -9.847095    14.231206    9.143130    -1.498301    -4.499804    -71.726341    47.187416    -14.966786    5.410271    -4.682588    -34.459511    -0.482739    -3.004673    -0.605374    -10.928207    2.281068    -2.203142    79.883606    47.028694    -4.368210    2.809729    -13.004977    8.639050    -8.019571    -12.420133    -11.540137    13.213724    -12.231277    0.135791    -5.504524    42.280739    -19.189558    15.669900    -6.963480    24.204084    0.000000    0.000000    0.000000    6.921490    -11.035666    1.127839    5.074108    7.318831    -0.570044    -4.761535    1.925661    -7.541856    0.000000    0.000000    0.000000    
306.135529    84.872780    42.180603    -0.038338    -5.649996    100.003426    1.685914    -12.344051    -4.071483    14.147010    13.223614    -5.902010    9.982795    19.769989    17.407101    -19.147198    -10.073899    14.157992    9.109016    -1.280360    -4.256873    -72.518196    46.500507    -14.249838    4.772011    -3.765360    -33.783405    -1.207464    -2.315756    -0.154468    -10.843862    2.279576    -1.709734    80.264427    49.834503    -4.541750    2.542121    -14.108455    9.398036    -8.607887    -13.419254    -12.157564    13.676991    -13.357999    0.453729    -5.504524    42.280739    -19.189558    15.669900    -6.963480    24.204084    0.000000    0.000000    0.000000    7.720023    -10.345562    0.307704    3.708918    6.842112    -1.525894    -4.357544    1.822737    -5.725504    0.000000    0.000000    0.000000    
